<svg width="20" height="20" viewBox="0 0 20 20" fill="none" xmlns="http://www.w3.org/2000/svg">
<path d="M14.5335 10.9696C15.2608 10.9696 15.9008 10.5721 16.2305 9.97086L19.702 3.67752C20.0608 3.03752 19.5953 2.24237 18.8583 2.24237H4.50683L3.59532 0.302979H0.424408V2.24237H2.3638L5.85471 9.60237L4.54562 11.9684C3.83774 13.2678 4.76865 14.8484 6.24259 14.8484H17.879V12.909H6.24259L7.30926 10.9696H14.5335ZM5.42804 4.18177H17.2099L14.5335 9.03025H7.72623L5.42804 4.18177ZM6.24259 15.8181C5.17592 15.8181 4.31289 16.6909 4.31289 17.7575C4.31289 18.8242 5.17592 19.6969 6.24259 19.6969C7.30926 19.6969 8.18198 18.8242 8.18198 17.7575C8.18198 16.6909 7.30926 15.8181 6.24259 15.8181ZM15.9396 15.8181C14.8729 15.8181 14.0099 16.6909 14.0099 17.7575C14.0099 18.8242 14.8729 19.6969 15.9396 19.6969C17.0062 19.6969 17.879 18.8242 17.879 17.7575C17.879 16.6909 17.0062 15.8181 15.9396 15.8181Z" fill="black" fill-opacity="1"/>
</svg>
