<svg width="20" height="20" viewBox="0 0 20 20" fill="none" xmlns="http://www.w3.org/2000/svg">
<path d="M12.5 11H11.71L11.43 10.73C12.41 9.59 13 8.11 13 6.5C13 2.91 10.09 0 6.50003 0C2.91003 0 3.05176e-05 2.91 3.05176e-05 6.5C3.05176e-05 10.09 2.91003 13 6.50003 13C8.11003 13 9.59003 12.41 10.73 11.43L11 11.71V12.5L16 17.49L17.49 16L12.5 11ZM6.50003 11C4.01003 11 2.00003 8.99 2.00003 6.5C2.00003 4.01 4.01003 2 6.50003 2C8.99003 2 11 4.01 11 6.5C11 8.99 8.99003 11 6.50003 11Z" fill="#363130"/>
</svg>
